<?xml version="1.0" encoding="utf-8"?>
<!-- Generator: Adobe Illustrator 16.0.0, SVG Export Plug-In . SVG Version: 6.00 Build 0)  -->
<!DOCTYPE svg PUBLIC "-//W3C//DTD SVG 1.1//EN" "http://www.w3.org/Graphics/SVG/1.1/DTD/svg11.dtd">
<svg version="1.1" id="Layer_1" xmlns="http://www.w3.org/2000/svg" xmlns:xlink="http://www.w3.org/1999/xlink" x="0px" y="0px"
	 width="110px" height="40px" viewBox="0 0 110 40" enable-background="new 0 0 110 40" xml:space="preserve">
<g>
	<g>
		<path fill="#337439" d="M107.174,5.644H33.921C30.321,2.153,25.411,0,19.999,0C8.954,0,0,8.954,0,20s8.954,20,19.999,20
			c5.412,0,10.322-2.152,13.922-5.643h73.252c0.814,0,1.482-0.669,1.482-1.483V7.127C108.656,6.312,107.988,5.644,107.174,5.644z"/>
		<path fill="none" stroke="#FFFFFF" stroke-width="0.5927" stroke-linejoin="round" stroke-miterlimit="10" d="M19.999,1.483
			C9.788,1.483,1.482,9.789,1.482,20c0,10.212,8.306,18.519,18.517,18.519c4.839,0,9.417-1.855,12.891-5.227l0.431-0.418h73.853
			V7.127H33.321L32.89,6.708C29.417,3.338,24.838,1.483,19.999,1.483z"/>
		<g>
			<path fill="#FFFFFF" d="M7.6,26.741c-0.086-0.106-0.14-0.187-0.206-0.278l-0.181-0.261c-0.119-0.168-0.233-0.343-0.345-0.515
				c-0.23-0.343-0.441-0.695-0.649-1.049c-0.412-0.715-0.792-1.454-1.065-2.278c-0.134-0.413-0.245-0.846-0.289-1.304
				c-0.05-0.459-0.026-0.948,0.096-1.424c0.062-0.239,0.151-0.471,0.264-0.689l0.021-0.041l0.02-0.034l0.008-0.016l0.035-0.061
				l0.036-0.063l0.05-0.081c0.068-0.113,0.131-0.201,0.203-0.294c0.285-0.374,0.65-0.697,1.051-0.928
				c0.402-0.232,0.829-0.38,1.248-0.469c0.418-0.088,0.833-0.125,1.235-0.131c0.808-0.012,1.58,0.086,2.334,0.216
				c1.507,0.267,2.952,0.664,4.387,1.067c0.72,0.2,1.433,0.413,2.149,0.607c0.716,0.196,1.433,0.389,2.149,0.57
				c0.719,0.177,1.439,0.346,2.165,0.49c0.724,0.142,1.452,0.261,2.185,0.349c0.731,0.083,1.467,0.144,2.202,0.138
				c0.735-0.002,1.47-0.054,2.192-0.179c0.722-0.125,1.429-0.333,2.098-0.627c0.668-0.292,1.291-0.687,1.848-1.158l0,0
				c0.064-0.055,0.161-0.047,0.216,0.018c0.029,0.035,0.04,0.078,0.036,0.119l-0.001,0.004c-0.195,1.494-0.458,2.983-0.844,4.451
				c-0.387,1.463-0.894,2.905-1.601,4.268c-0.355,0.679-0.762,1.334-1.23,1.952c-0.469,0.614-1.007,1.185-1.612,1.685
				c-0.603,0.5-1.272,0.929-1.994,1.254c-0.72,0.324-1.484,0.557-2.261,0.683c-0.39,0.068-0.781,0.11-1.173,0.132
				c-0.393,0.022-0.783,0.024-1.178,0.003c-0.806-0.045-1.601-0.217-2.355-0.509c-0.753-0.291-1.456-0.701-2.089-1.187
				c-0.634-0.489-1.202-1.049-1.708-1.651c-1.013-1.211-1.791-2.583-2.405-4.008c-0.306-0.715-0.573-1.446-0.794-2.193
				c-0.22-0.749-0.4-1.507-0.51-2.306l0,0c-0.05-0.396,0.227-0.755,0.621-0.806c0.117-0.015,0.229-0.002,0.332,0.036l0.015,0.004
				c1.434,0.515,2.886,0.976,4.359,1.339c1.472,0.36,2.96,0.646,4.458,0.783c1.495,0.137,3.001,0.133,4.456-0.092
				c0.726-0.112,1.438-0.293,2.105-0.55c0.665-0.259,1.293-0.599,1.796-1.049c0.505-0.444,0.872-1.004,0.992-1.608
				c0.06-0.299,0.058-0.613,0-0.92c-0.033-0.154-0.076-0.308-0.134-0.46l-0.002-0.006c0.003,0.006-0.01-0.023,0.006,0.014
				l-0.008-0.02l-0.013-0.031l-0.029-0.068c-0.015-0.031-0.025-0.049-0.036-0.074c-0.034-0.06-0.07-0.119-0.111-0.175
				c-0.167-0.228-0.415-0.428-0.705-0.587c-0.292-0.162-0.619-0.289-0.963-0.381c-0.69-0.197-1.432-0.282-2.178-0.31
				c-0.748-0.025-1.504,0.006-2.26,0.078c-0.754,0.074-1.508,0.19-2.255,0.346c-0.747,0.158-1.488,0.349-2.22,0.574
				c-0.73,0.232-1.451,0.499-2.156,0.806c-0.068,0.029-0.148-0.002-0.177-0.071c-0.028-0.063-0.002-0.139,0.059-0.171
				c0.683-0.378,1.394-0.707,2.12-0.995c0.727-0.294,1.47-0.547,2.226-0.755c0.756-0.208,1.525-0.382,2.304-0.506
				c0.778-0.128,1.569-0.208,2.369-0.218c0.799-0.012,1.609,0.039,2.422,0.222c0.406,0.091,0.814,0.222,1.21,0.416
				c0.396,0.195,0.787,0.462,1.102,0.843c0.079,0.093,0.151,0.194,0.217,0.301c0.035,0.06,0.072,0.126,0.1,0.181l0.031,0.066
				l0.016,0.033l0.007,0.016l0.017,0.039c0.084,0.21,0.152,0.426,0.202,0.65c0.049,0.226,0.076,0.457,0.083,0.689
				c0.006,0.233-0.014,0.467-0.054,0.699c-0.081,0.457-0.255,0.896-0.488,1.284c-0.235,0.389-0.525,0.731-0.847,1.027
				c-0.643,0.599-1.393,1.014-2.159,1.334c-0.77,0.313-1.566,0.526-2.365,0.667c-0.799,0.145-1.604,0.214-2.405,0.235
				c-0.804,0.021-1.601-0.008-2.394-0.07c-0.795-0.064-1.582-0.167-2.362-0.298c-0.781-0.131-1.556-0.291-2.321-0.48
				c-1.532-0.378-3.036-0.843-4.509-1.388l0.966-0.765l0,0c0.075,0.693,0.221,1.405,0.407,2.103
				c0.187,0.698,0.415,1.388,0.683,2.063c0.538,1.343,1.227,2.631,2.113,3.752c0.444,0.559,0.938,1.072,1.483,1.516
				c0.545,0.444,1.144,0.814,1.786,1.082c0.64,0.267,1.326,0.435,2.018,0.493c0.354,0.028,0.717,0.04,1.074,0.032
				c0.358-0.006,0.715-0.03,1.068-0.079c0.708-0.092,1.401-0.274,2.059-0.546c0.661-0.269,1.28-0.634,1.85-1.071
				c1.142-0.876,2.058-2.049,2.784-3.325c0.724-1.281,1.27-2.673,1.7-4.096c0.431-1.427,0.744-2.892,0.989-4.369l0.25,0.138l0,0
				c-0.582,0.489-1.234,0.89-1.924,1.199c-0.69,0.311-1.421,0.527-2.161,0.671c-0.739,0.146-1.493,0.214-2.245,0.233
				c-0.752,0.018-1.503-0.008-2.252-0.071c-0.747-0.063-1.492-0.158-2.231-0.277c-0.74-0.115-1.476-0.249-2.209-0.395
				c-0.733-0.148-1.462-0.306-2.189-0.471l-2.179-0.485c-0.725-0.158-1.449-0.311-2.172-0.447c-0.723-0.135-1.446-0.257-2.165-0.329
				c-0.718-0.072-1.434-0.107-2.113-0.043c-0.675,0.059-1.318,0.224-1.78,0.547c-0.231,0.16-0.418,0.354-0.568,0.586
				c-0.036,0.055-0.077,0.125-0.1,0.171l-0.021,0.039l-0.03,0.063l-0.031,0.064l-0.008,0.013c-0.003,0.008,0.014-0.025,0.006-0.01
				l-0.002,0.006l-0.009,0.023c-0.045,0.117-0.075,0.24-0.095,0.364c-0.072,0.499,0.092,1.074,0.397,1.623
				c0.303,0.551,0.729,1.074,1.215,1.546c0.241,0.237,0.506,0.457,0.772,0.669C9.08,23.926,9.22,24.024,9.36,24.12
				c0.068,0.049,0.142,0.093,0.211,0.137c0.068,0.041,0.148,0.088,0.199,0.106c0.902,0.308,1.385,1.288,1.08,2.191
				c-0.308,0.902-1.29,1.387-2.191,1.08c-0.328-0.111-0.601-0.312-0.8-0.566L7.6,26.741z"/>
			<g>
				<path fill="#FFFFFF" d="M20.241,10.49c-0.063,3.229-2.242,5.69-2.886,5.815c-0.208-0.944-0.029-6.769,0.304-7.629
					c-1.146,2.289-0.775,6.817-0.501,7.674c-4.349-4.795-0.438-9.287,1.269-10.312C18.854,7.542,20.194,8.586,20.241,10.49z"/>
			</g>
			<g>
				<path fill="#FFFFFF" d="M12.213,13.495c1.764,0.78,3.079,2.152,3.85,3.787c-0.86-0.794-1.977-1.65-3.245-2.454
					c-0.771-0.486-1.53-0.915-2.24-1.267c0.905,0.907,2.185,1.915,3.674,2.861c0.612,0.389,1.211,0.731,1.789,1.038
					c-0.943-0.04-1.892-0.246-2.804-0.645c-1.826-0.813-3.184-2.253-3.942-3.97C10.277,12.868,11.266,13.076,12.213,13.495z"/>
			</g>
			<path fill="#FFFFFF" d="M28.111,14.74c0,0-0.082,0.068-0.202,0.197c-0.063,0.064-0.128,0.146-0.209,0.237
				c-0.076,0.094-0.16,0.201-0.245,0.319c-0.171,0.238-0.354,0.52-0.528,0.833c-0.171,0.315-0.335,0.66-0.499,1.004
				c-0.326,0.687-0.614,1.393-0.802,1.934c-0.094,0.27-0.166,0.499-0.213,0.66c-0.047,0.16-0.069,0.253-0.069,0.253
				c-0.117,0.276-0.789,0.269-1.561,0.08c-0.772-0.187-1.424,0.013-1.237-0.757c0.04-0.164,0.108-0.315,0.193-0.45
				c0,0,0.053-0.08,0.139-0.224c0.086-0.146,0.202-0.354,0.335-0.607c0.265-0.508,0.581-1.199,0.861-1.909
				c0.138-0.354,0.275-0.71,0.388-1.049c0.111-0.34,0.192-0.669,0.247-0.955c0.029-0.144,0.048-0.279,0.064-0.399
				c0.011-0.121,0.025-0.224,0.029-0.313c0.011-0.175,0.006-0.282,0.006-0.282c-0.059-1.109,0.79-2.055,1.898-2.115
				c1.107-0.061,2.056,0.79,2.115,1.897C28.856,13.745,28.572,14.347,28.111,14.74z"/>
			<path fill="#FFFFFF" d="M10.259,9.018c0,0,0.024,0.02,0.068,0.063c0.045,0.041,0.107,0.096,0.205,0.175
				c0.177,0.144,0.43,0.352,0.733,0.602c0.146,0.12,0.305,0.251,0.472,0.391c0.166,0.139,0.334,0.292,0.505,0.452
				c0.341,0.323,0.683,0.686,1.004,1.061c0.318,0.379,0.624,0.767,0.887,1.146c0.27,0.374,0.496,0.74,0.686,1.055
				c0.187,0.317,0.333,0.587,0.43,0.778c0.098,0.193,0.153,0.304,0.153,0.304c0.015,0.026,0.003,0.06-0.025,0.073
				c-0.028,0.016-0.062,0.004-0.076-0.023l-0.001-0.002c0,0-0.05-0.111-0.147-0.302c-0.098-0.187-0.244-0.453-0.444-0.759
				c-0.392-0.615-0.995-1.383-1.696-2.051c-0.349-0.333-0.717-0.646-1.079-0.911c-0.363-0.265-0.711-0.493-1.033-0.648
				c-0.16-0.075-0.312-0.136-0.448-0.183c-0.138-0.041-0.257-0.078-0.354-0.094c-0.093-0.017-0.183-0.031-0.243-0.041
				c-0.06-0.006-0.091-0.01-0.091-0.01c-0.344-0.039-0.59-0.348-0.55-0.69c0.037-0.345,0.348-0.589,0.69-0.551
				C10.042,8.869,10.165,8.927,10.259,9.018z"/>
			<path fill="#FFFFFF" d="M24.625,11.224c0,0-0.025,0.023-0.073,0.063c-0.044,0.043-0.106,0.106-0.192,0.197
				c-0.167,0.175-0.394,0.417-0.654,0.71c-0.129,0.148-0.269,0.305-0.416,0.475c-0.146,0.167-0.305,0.341-0.472,0.514
				c-0.336,0.348-0.707,0.707-1.096,1.041c-0.392,0.331-0.791,0.65-1.187,0.921c-0.196,0.138-0.388,0.265-0.575,0.379
				c-0.186,0.115-0.365,0.218-0.533,0.311c-0.336,0.183-0.625,0.319-0.831,0.405c-0.102,0.046-0.184,0.077-0.238,0.101
				c-0.057,0.022-0.085,0.033-0.085,0.033c-0.031,0.012-0.064-0.002-0.076-0.033c-0.013-0.027,0.002-0.063,0.031-0.074
				c0.002,0,0.003-0.002,0.004-0.002c0,0,0.118-0.041,0.319-0.128c0.201-0.087,0.487-0.222,0.809-0.418
				c0.162-0.095,0.336-0.204,0.511-0.331c0.177-0.123,0.359-0.259,0.543-0.407c0.364-0.296,0.736-0.635,1.079-1
				c0.345-0.362,0.667-0.743,0.945-1.119c0.278-0.377,0.523-0.736,0.697-1.064c0.086-0.166,0.156-0.321,0.212-0.461
				c0.053-0.142,0.099-0.267,0.125-0.37c0.028-0.097,0.049-0.188,0.061-0.25c0.013-0.061,0.019-0.094,0.019-0.094
				c0.068-0.351,0.408-0.582,0.759-0.514c0.352,0.07,0.581,0.409,0.512,0.761C24.797,11.011,24.724,11.132,24.625,11.224z"/>
		</g>
		<g>
			<path fill="#FFFFFF" d="M47.576,20.069c0,0.752-0.095,1.434-0.286,2.043c-0.19,0.608-0.476,1.128-0.86,1.56
				s-0.862,0.765-1.437,0.997c-0.574,0.231-1.241,0.349-2.003,0.349c-0.781,0-1.451-0.119-2.011-0.354
				c-0.56-0.236-1.019-0.568-1.375-1.001c-0.355-0.432-0.618-0.953-0.788-1.56c-0.17-0.611-0.254-1.287-0.254-2.034
				c0-0.748,0.086-1.421,0.259-2.019c0.172-0.597,0.442-1.109,0.804-1.53c0.363-0.422,0.825-0.746,1.386-0.971
				c0.559-0.223,1.223-0.336,1.99-0.336c0.768,0,1.437,0.113,2.007,0.336c0.571,0.226,1.045,0.549,1.427,0.971
				c0.38,0.42,0.665,0.933,0.855,1.53C47.481,18.648,47.576,19.321,47.576,20.069z M45.626,20.069c0-0.583-0.049-1.104-0.15-1.567
				c-0.1-0.463-0.256-0.856-0.47-1.178c-0.214-0.321-0.488-0.566-0.817-0.737c-0.333-0.167-0.725-0.253-1.182-0.253
				c-0.399,0-0.772,0.043-1.117,0.131c-0.345,0.085-0.618,0.208-0.817,0.368c-0.2,0.157-0.347,0.508-0.44,1.047
				c-0.094,0.539-0.141,1.269-0.141,2.19c0,0.573,0.042,1.093,0.125,1.56c0.083,0.468,0.221,0.87,0.414,1.209
				c0.194,0.339,0.451,0.6,0.772,0.782c0.32,0.185,0.719,0.276,1.194,0.276c0.491,0,0.895-0.045,1.212-0.136
				c0.317-0.091,0.586-0.21,0.808-0.362c0.103-0.07,0.193-0.208,0.269-0.415c0.076-0.208,0.139-0.461,0.191-0.762
				c0.052-0.304,0.09-0.638,0.114-1.01C45.614,20.843,45.626,20.461,45.626,20.069z"/>
			<path fill="#FFFFFF" d="M55.374,15.318h1.119l-3.36,9.563h-1.804l-3.413-9.563h1.992l1.721,5.153
				c0.131,0.396,0.256,0.781,0.374,1.158c0.118,0.378,0.224,0.719,0.323,1.021c0.109,0.353,0.209,0.692,0.3,1.018
				c0.109-0.388,0.228-0.773,0.351-1.161c0.104-0.333,0.217-0.693,0.338-1.08c0.121-0.388,0.24-0.747,0.357-1.08L55.374,15.318z"/>
			<path fill="#FFFFFF" d="M65.881,20.069c0,0.752-0.096,1.434-0.285,2.043c-0.191,0.608-0.479,1.128-0.861,1.56
				c-0.385,0.432-0.863,0.765-1.436,0.997c-0.576,0.231-1.242,0.349-2.004,0.349c-0.781,0-1.451-0.119-2.012-0.354
				c-0.559-0.236-1.018-0.568-1.373-1.001c-0.357-0.432-0.619-0.953-0.789-1.56c-0.17-0.611-0.254-1.287-0.254-2.034
				c0-0.748,0.086-1.421,0.258-2.019c0.174-0.597,0.441-1.109,0.807-1.53c0.361-0.422,0.822-0.746,1.383-0.971
				c0.561-0.223,1.225-0.336,1.992-0.336s1.436,0.113,2.008,0.336c0.57,0.226,1.045,0.549,1.426,0.971
				c0.379,0.42,0.664,0.933,0.855,1.53C65.785,18.648,65.881,19.321,65.881,20.069z M63.93,20.069c0-0.583-0.049-1.104-0.148-1.567
				c-0.102-0.463-0.258-0.856-0.471-1.178c-0.215-0.321-0.488-0.566-0.82-0.737c-0.33-0.167-0.723-0.253-1.178-0.253
				c-0.4,0-0.773,0.043-1.119,0.131c-0.346,0.085-0.617,0.208-0.818,0.368c-0.199,0.157-0.348,0.508-0.439,1.047
				s-0.141,1.269-0.141,2.19c0,0.573,0.043,1.093,0.125,1.56c0.084,0.468,0.221,0.87,0.416,1.209c0.191,0.339,0.447,0.6,0.77,0.782
				c0.32,0.185,0.719,0.276,1.195,0.276c0.49,0,0.895-0.045,1.211-0.136c0.318-0.091,0.588-0.21,0.809-0.362
				c0.104-0.07,0.193-0.208,0.268-0.415c0.076-0.208,0.141-0.461,0.193-0.762c0.051-0.304,0.088-0.638,0.113-1.01
				C63.918,20.843,63.93,20.461,63.93,20.069z"/>
			<path fill="#FFFFFF" d="M69.088,24.881v-8.547l-2.791-0.042l0.096-0.973h7.352l-0.092,0.944l-2.707,0.072v8.547H69.088z"/>
			<path fill="#FFFFFF" d="M79.633,24.881l-1.068-3.227l-3.422,0.05l-1.1,3.177h-1.174l3.6-9.481l1.795-0.322l3.35,9.803H79.633z
				 M78.275,20.751l-1.379-4.128l-1.422,4.128H78.275z"/>
			<path fill="#FFFFFF" d="M85.156,20.938h-0.621v3.943h-1.848v-9.543c0.373-0.027,0.795-0.053,1.264-0.072
				c0.471-0.022,0.922-0.031,1.35-0.031c1.1,0,1.934,0.21,2.504,0.633c0.572,0.422,0.855,1.082,0.855,1.98
				c0,0.401-0.047,0.751-0.145,1.047c-0.096,0.298-0.225,0.557-0.383,0.779c-0.16,0.22-0.342,0.409-0.551,0.561
				c-0.205,0.152-0.424,0.278-0.652,0.383c0.27,0.49,0.527,0.953,0.773,1.392c0.244,0.437,0.49,0.815,0.736,1.141
				c0.244,0.324,0.494,0.581,0.746,0.772c0.252,0.19,0.523,0.286,0.814,0.286h0.063v0.61c-0.146,0.049-0.313,0.088-0.504,0.121
				c-0.191,0.03-0.404,0.045-0.639,0.045c-0.338,0-0.633-0.03-0.885-0.092c-0.254-0.063-0.5-0.199-0.736-0.404
				c-0.24-0.208-0.486-0.512-0.742-0.913c-0.256-0.4-0.553-0.944-0.893-1.632L85.156,20.938z M84.865,19.994
				c0.256,0,0.502-0.033,0.742-0.097c0.238-0.066,0.426-0.148,0.564-0.246c0.07-0.049,0.139-0.109,0.207-0.185
				c0.07-0.078,0.133-0.177,0.188-0.302c0.057-0.124,0.102-0.285,0.137-0.477c0.031-0.195,0.049-0.437,0.049-0.729
				c0-0.325-0.035-0.595-0.107-0.819c-0.072-0.22-0.182-0.399-0.326-0.533c-0.146-0.134-0.326-0.232-0.541-0.291
				c-0.215-0.058-0.459-0.089-0.736-0.089c-0.076,0-0.16,0.002-0.254,0.006s-0.178,0.012-0.252,0.027v3.732H84.865z"/>
			<path fill="#FFFFFF" d="M92.914,24.881h-1.846v-9.563h1.846V24.881z"/>
			<path fill="#FFFFFF" d="M100.514,22.081c0,0.346-0.082,0.692-0.248,1.042c-0.166,0.349-0.404,0.664-0.717,0.944
				c-0.311,0.277-0.686,0.508-1.123,0.684c-0.439,0.177-0.934,0.267-1.48,0.267c-0.289,0-0.559-0.02-0.809-0.054
				c-0.248-0.034-0.48-0.081-0.699-0.14c-0.217-0.059-0.428-0.133-0.627-0.217c-0.201-0.086-0.402-0.182-0.604-0.287l0.457-1.421
				c0.131,0.09,0.307,0.188,0.525,0.291c0.215,0.104,0.453,0.2,0.709,0.289c0.256,0.092,0.514,0.166,0.773,0.224
				c0.258,0.06,0.494,0.09,0.709,0.09c0.242,0,0.441-0.018,0.598-0.047c0.154-0.031,0.295-0.076,0.42-0.13
				c0.139-0.057,0.25-0.192,0.332-0.414c0.084-0.223,0.123-0.511,0.123-0.862c0-0.325-0.105-0.584-0.32-0.779
				c-0.215-0.194-0.48-0.361-0.805-0.502c-0.32-0.141-0.668-0.284-1.043-0.426c-0.371-0.142-0.721-0.325-1.041-0.548
				c-0.32-0.226-0.59-0.516-0.805-0.866c-0.213-0.354-0.32-0.817-0.32-1.391c0-0.276,0.074-0.568,0.217-0.875
				c0.146-0.308,0.355-0.592,0.633-0.851c0.277-0.259,0.619-0.473,1.027-0.638s0.871-0.249,1.389-0.249
				c0.416,0,0.814,0.021,1.199,0.062c0.385,0.043,0.756,0.098,1.115,0.167l-0.291,1.421c-0.166-0.062-0.354-0.12-0.564-0.177
				c-0.211-0.055-0.426-0.105-0.645-0.144c-0.217-0.043-0.43-0.076-0.637-0.099c-0.207-0.023-0.391-0.037-0.549-0.037
				c-0.182,0-0.348,0.01-0.5,0.025c-0.15,0.018-0.289,0.066-0.414,0.14c-0.117,0.069-0.201,0.188-0.256,0.358
				c-0.051,0.169-0.076,0.372-0.076,0.607c0,0.244,0.063,0.444,0.188,0.602c0.123,0.16,0.289,0.3,0.492,0.42
				c0.205,0.121,0.436,0.232,0.695,0.333c0.258,0.1,0.525,0.207,0.799,0.321c0.273,0.113,0.537,0.245,0.799,0.393
				c0.26,0.149,0.49,0.333,0.695,0.551c0.203,0.218,0.367,0.482,0.492,0.794C100.453,21.261,100.514,21.637,100.514,22.081z"/>
		</g>
	</g>
</g>
</svg>
